<svg xmlns="http://www.w3.org/2000/svg" width="16px" height="16px"
     viewBox="2.2 0 8 8" fill="#ff0c0c">
    <defs>
        <mask id="Mask">
            <path d="m 78.679688,115.50977 c -0.120712,0.0641 -0.42793,0.23077 -0.582032,0.34961 -0.183353,0.14139 -0.341667,0.2967 -0.496094,0.48632 -0.09316,0.11439 -0.175141,0.29861 -0.208984,0.46485 -0.05593,0.27473 -0.01958,0.56221 0.01953,0.83984 0.0674,0.47849 0.369141,1.40234 0.369141,1.40234 0,0 -0.370215,0.25236 -0.529297,0.40821 -0.08369,0.082 -0.134669,0.16526 -0.179687,0.27344 -0.06269,0.15064 -0.0906,0.32319 -0.09375,0.48632 -0.0016,0.0822 0.01367,0.26563 0.01367,0.26563 -10e-7,0 0.365376,-0.37098 0.609374,-0.45117 0.135542,-0.0445 0.296791,-0.0606 0.427735,-0.004 0.05341,0.0231 0.05909,0.12539 0.117187,0.12891 0.134803,0.008 0.418285,0.003 0.533204,0 0.114918,0.003 0.3984,0.008 0.533203,0 0.05809,-0.004 0.06378,-0.10581 0.117187,-0.12891 0.130944,-0.0567 0.294146,-0.0406 0.429688,0.004 0.243998,0.0802 0.607422,0.45117 0.607422,0.45117 0,0 0.01722,-0.18343 0.01562,-0.26563 -0.0031,-0.16313 -0.03106,-0.33569 -0.09375,-0.48632 -0.04502,-0.10818 -0.09795,-0.19144 -0.18164,-0.27344 -0.159082,-0.15585 -0.529297,-0.40821 -0.529297,-0.40821 0,0 0.303694,-0.92385 0.371094,-1.40234 0.03911,-0.27763 0.07351,-0.56511 0.01758,-0.83984 -0.03384,-0.16624 -0.115825,-0.35046 -0.208985,-0.46485 -0.154426,-0.18962 -0.31274,-0.34493 -0.496093,-0.48632 -0.154102,-0.11884 -0.46132,-0.28549 -0.582031,-0.34961 z"
                  fill="white" transform="matrix(-1.5867841,0,0,1.5867841,131.19823,-183.26425)"/>
            <circle fill="black" cx="6.346231" cy="2.3943322" r="1.2447678"/>
        </mask>
    </defs>
    <g data-iconColor="FlatBuffers" mask="url(#Mask)">
        <path d="m 78.679688,115.50977 c -0.120712,0.0641 -0.42793,0.23077 -0.582032,0.34961 -0.183353,0.14139 -0.341667,0.2967 -0.496094,0.48632 -0.09316,0.11439 -0.175141,0.29861 -0.208984,0.46485 -0.05593,0.27473 -0.01958,0.56221 0.01953,0.83984 0.0674,0.47849 0.369141,1.40234 0.369141,1.40234 0,0 -0.370215,0.25236 -0.529297,0.40821 -0.08369,0.082 -0.134669,0.16526 -0.179687,0.27344 -0.06269,0.15064 -0.0906,0.32319 -0.09375,0.48632 -0.0016,0.0822 0.01367,0.26563 0.01367,0.26563 -10e-7,0 0.365376,-0.37098 0.609374,-0.45117 0.135542,-0.0445 0.296791,-0.0606 0.427735,-0.004 0.05341,0.0231 0.05909,0.12539 0.117187,0.12891 0.134803,0.008 0.418285,0.003 0.533204,0 0.114918,0.003 0.3984,0.008 0.533203,0 0.05809,-0.004 0.06378,-0.10581 0.117187,-0.12891 0.130944,-0.0567 0.294146,-0.0406 0.429688,0.004 0.243998,0.0802 0.607422,0.45117 0.607422,0.45117 0,0 0.01722,-0.18343 0.01562,-0.26563 -0.0031,-0.16313 -0.03106,-0.33569 -0.09375,-0.48632 -0.04502,-0.10818 -0.09795,-0.19144 -0.18164,-0.27344 -0.159082,-0.15585 -0.529297,-0.40821 -0.529297,-0.40821 0,0 0.303694,-0.92385 0.371094,-1.40234 0.03911,-0.27763 0.07351,-0.56511 0.01758,-0.83984 -0.03384,-0.16624 -0.115825,-0.35046 -0.208985,-0.46485 -0.154426,-0.18962 -0.31274,-0.34493 -0.496093,-0.48632 -0.154102,-0.11884 -0.46132,-0.28549 -0.582031,-0.34961 z"
              transform="matrix(-1.5867841,0,0,1.5867841,131.19823,-183.26425)"/>
        <circle fill="white" cx="6.346231" cy="2.3943322" r="1.2447678"/>
    </g>
</svg>
