<!--
  - The MIT License (MIT)
  -
  - Copyright (c) 2015-2026 Elior "Mallowigi" Boukhobza
  -
  - Permission is hereby granted, free of charge, to any person obtaining a copy
  - of this software and associated documentation files (the "Software"), to deal
  - in the Software without restriction, including without limitation the rights
  - to use, copy, modify, merge, publish, distribute, sublicense, and/or sell
  - copies of the Software, and to permit persons to whom the Software is
  - furnished to do so, subject to the following conditions:
  -
  - The above copyright notice and this permission notice shall be included in all
  - copies or substantial portions of the Software.
  -
  - THE SOFTWARE IS PROVIDED "AS IS", WITHOUT WARRANTY OF ANY KIND, EXPRESS OR
  - IMPLIED, INCLUDING BUT NOT LIMITED TO THE WARRANTIES OF MERCHANTABILITY,
  - FITNESS FOR A PARTICULAR PURPOSE AND NONINFRINGEMENT. IN NO EVENT SHALL THE
  - AUTHORS OR COPYRIGHT HOLDERS BE LIABLE FOR ANY CLAIM, DAMAGES OR OTHER
  - LIABILITY, WHETHER IN AN ACTION OF CONTRACT, TORT OR OTHERWISE, ARISING FROM,
  - OUT OF OR IN CONNECTION WITH THE SOFTWARE OR THE USE OR OTHER DEALINGS IN THE
  - SOFTWARE.
  -
  -->

<svg xmlns="http://www.w3.org/2000/svg" width="16px" height="16px" viewBox="0 0 32 32">
    <g transform="matrix(.3 0 0 .3 4.76 .548)">
        <path fill="#ff1999" data-iconColor="Lychee"
              d="M70.45 36.56c11.47.49 9.89 13.54 2.27 14.7c12.96 1.81 7 16.43 1.3 16.12c8.15 8.91.07 19.91-9.72 14.7c2.23 8.12-10.51 12.39-13.27 4.27c-4.53 13.58-16.81 8.56-16.73 2.23c-4.14 7.23-13.63 2.72-13.59-2.93c-7.25 4.14-16.32-4.67-11.24-11.38c-9.89-.24-9.65-12.44-2.25-14.17c1.72.7-.7 3.15-.02-.13c-10.24-3.31-8.53-14.4-1.3-14.3c-3.45-4.86 2.16-11.58 8.26-10.89"/>
        <path fill="#d2d2d2"
              d="M152.52 103.86c-.77-22.84-14.5-41.68-32.42-41.74c-25.38-.08-37.7 33.2-31.56 49.34c17.67 13.97 58.79 5.47 63.98-7.6"
              transform="translate(-51.66 -42.89)scale(.76517)"/>
    </g>
</svg>
